<mxfile host="app.diagrams.net" modified="2022-10-21T18:14:35.520Z" agent="5.0 (Windows)" etag="x1cSSjwORP_5H7HLJbmB" version="20.5.0" type="github">
  <diagram id="wbSmJAx2QIwuOaR70lue" name="Page-1">
    <mxGraphModel dx="1038" dy="1636" grid="1" gridSize="10" guides="1" tooltips="1" connect="1" arrows="1" fold="1" page="1" pageScale="1" pageWidth="850" pageHeight="1100" math="0" shadow="0">
      <root>
        <mxCell id="0" />
        <mxCell id="1" parent="0" />
        <mxCell id="yfcvIqxZyUnn7YjuINkd-1" value="&lt;b&gt;&lt;font style=&quot;font-size: 16px;&quot; color=&quot;#0000FF&quot;&gt;Student&lt;/font&gt;&lt;/b&gt;" style="ellipse;whiteSpace=wrap;html=1;fillColor=#dae8fc;strokeColor=#6c8ebf;" vertex="1" parent="1">
          <mxGeometry x="20" y="84" width="120" height="50" as="geometry" />
        </mxCell>
        <mxCell id="yfcvIqxZyUnn7YjuINkd-2" value="&lt;b&gt;&lt;font style=&quot;font-size: 16px;&quot; color=&quot;#0000FF&quot;&gt;Stock manager&lt;/font&gt;&lt;/b&gt;" style="ellipse;whiteSpace=wrap;html=1;fillColor=#dae8fc;strokeColor=#6c8ebf;" vertex="1" parent="1">
          <mxGeometry x="570" y="-310" width="120" height="50" as="geometry" />
        </mxCell>
        <mxCell id="yfcvIqxZyUnn7YjuINkd-3" value="&lt;b&gt;&lt;font style=&quot;font-size: 16px;&quot; color=&quot;#0000FF&quot;&gt;University Member&lt;/font&gt;&lt;/b&gt;" style="ellipse;whiteSpace=wrap;html=1;fillColor=#dae8fc;strokeColor=#6c8ebf;" vertex="1" parent="1">
          <mxGeometry x="610" y="520" width="120" height="50" as="geometry" />
        </mxCell>
        <mxCell id="yfcvIqxZyUnn7YjuINkd-4" value="&lt;b&gt;&lt;font style=&quot;font-size: 16px;&quot; color=&quot;#0000FF&quot;&gt;Librarian&lt;/font&gt;&lt;/b&gt;" style="ellipse;whiteSpace=wrap;html=1;fillColor=#dae8fc;strokeColor=#6c8ebf;" vertex="1" parent="1">
          <mxGeometry x="520" y="525" width="120" height="50" as="geometry" />
        </mxCell>
        <mxCell id="yfcvIqxZyUnn7YjuINkd-5" value="&lt;b&gt;&lt;font style=&quot;font-size: 16px;&quot; color=&quot;#0000FF&quot;&gt;Worker&lt;br&gt;&lt;/font&gt;&lt;/b&gt;" style="ellipse;whiteSpace=wrap;html=1;fillColor=#dae8fc;strokeColor=#6c8ebf;" vertex="1" parent="1">
          <mxGeometry x="350" y="640" width="120" height="50" as="geometry" />
        </mxCell>
        <mxCell id="yfcvIqxZyUnn7YjuINkd-10" value="01" style="swimlane;fontStyle=1;align=center;verticalAlign=middle;childLayout=stackLayout;horizontal=1;startSize=29;horizontalStack=0;resizeParent=1;resizeParentMax=0;resizeLast=0;collapsible=0;marginBottom=0;html=1;fontSize=16;strokeWidth=2;fillColor=#fff2cc;strokeColor=#d6b656;" vertex="1" parent="1">
          <mxGeometry x="300" y="80" width="140" height="54" as="geometry" />
        </mxCell>
        <mxCell id="yfcvIqxZyUnn7YjuINkd-12" value="&lt;div&gt;&lt;font color=&quot;#000000&quot;&gt;Borrow book&lt;/font&gt;&lt;/div&gt;" style="text;html=1;strokeColor=none;fillColor=none;align=left;verticalAlign=middle;spacingLeft=4;spacingRight=4;overflow=hidden;rotatable=0;points=[[0,0.5],[1,0.5]];portConstraint=eastwest;fontSize=16;fontColor=#0000FF;" vertex="1" parent="yfcvIqxZyUnn7YjuINkd-10">
          <mxGeometry y="29" width="140" height="25" as="geometry" />
        </mxCell>
        <mxCell id="yfcvIqxZyUnn7YjuINkd-13" value="" style="endArrow=classic;html=1;rounded=0;fontSize=16;fontColor=#0000FF;" edge="1" parent="1">
          <mxGeometry width="50" height="50" relative="1" as="geometry">
            <mxPoint x="140" y="110" as="sourcePoint" />
            <mxPoint x="300" y="110" as="targetPoint" />
          </mxGeometry>
        </mxCell>
        <mxCell id="yfcvIqxZyUnn7YjuINkd-15" value="Request to borrow a book" style="text;html=1;strokeColor=none;fillColor=none;align=center;verticalAlign=middle;whiteSpace=wrap;rounded=0;strokeWidth=2;fontSize=14;fontColor=#000000;" vertex="1" parent="1">
          <mxGeometry x="150" y="80" width="110" height="30" as="geometry" />
        </mxCell>
        <mxCell id="yfcvIqxZyUnn7YjuINkd-16" value="" style="endArrow=classic;html=1;rounded=0;fontSize=14;fontColor=#000000;" edge="1" parent="1">
          <mxGeometry width="50" height="50" relative="1" as="geometry">
            <mxPoint x="130" y="120" as="sourcePoint" />
            <mxPoint x="250" y="180" as="targetPoint" />
          </mxGeometry>
        </mxCell>
        <mxCell id="yfcvIqxZyUnn7YjuINkd-17" value="02" style="swimlane;fontStyle=1;align=center;verticalAlign=middle;childLayout=stackLayout;horizontal=1;startSize=29;horizontalStack=0;resizeParent=1;resizeParentMax=0;resizeLast=0;collapsible=0;marginBottom=0;html=1;fontSize=16;strokeWidth=2;fillColor=#fff2cc;strokeColor=#d6b656;" vertex="1" parent="1">
          <mxGeometry x="250" y="170" width="140" height="54" as="geometry" />
        </mxCell>
        <mxCell id="yfcvIqxZyUnn7YjuINkd-18" value="&lt;div&gt;&lt;font color=&quot;#000000&quot;&gt;Return book&lt;/font&gt;&lt;/div&gt;" style="text;html=1;strokeColor=none;fillColor=none;align=left;verticalAlign=middle;spacingLeft=4;spacingRight=4;overflow=hidden;rotatable=0;points=[[0,0.5],[1,0.5]];portConstraint=eastwest;fontSize=16;fontColor=#0000FF;" vertex="1" parent="yfcvIqxZyUnn7YjuINkd-17">
          <mxGeometry y="29" width="140" height="25" as="geometry" />
        </mxCell>
        <mxCell id="yfcvIqxZyUnn7YjuINkd-21" value="02" style="swimlane;fontStyle=1;align=center;verticalAlign=middle;childLayout=stackLayout;horizontal=1;startSize=29;horizontalStack=0;resizeParent=1;resizeParentMax=0;resizeLast=0;collapsible=0;marginBottom=0;html=1;fontSize=16;strokeWidth=2;fillColor=#fff2cc;strokeColor=#d6b656;" vertex="1" parent="1">
          <mxGeometry x="580" y="70" width="140" height="54" as="geometry" />
        </mxCell>
        <mxCell id="yfcvIqxZyUnn7YjuINkd-22" value="&lt;div&gt;&lt;font color=&quot;#000000&quot;&gt;Search of book&lt;/font&gt;&lt;/div&gt;" style="text;html=1;strokeColor=none;fillColor=none;align=left;verticalAlign=middle;spacingLeft=4;spacingRight=4;overflow=hidden;rotatable=0;points=[[0,0.5],[1,0.5]];portConstraint=eastwest;fontSize=16;fontColor=#0000FF;" vertex="1" parent="yfcvIqxZyUnn7YjuINkd-21">
          <mxGeometry y="29" width="140" height="25" as="geometry" />
        </mxCell>
        <mxCell id="yfcvIqxZyUnn7YjuINkd-23" value="" style="endArrow=classic;html=1;rounded=0;fontSize=14;fontColor=#000000;entryX=-0.014;entryY=0.28;entryDx=0;entryDy=0;exitX=1;exitY=0.5;exitDx=0;exitDy=0;entryPerimeter=0;" edge="1" parent="1" source="yfcvIqxZyUnn7YjuINkd-10" target="yfcvIqxZyUnn7YjuINkd-22">
          <mxGeometry width="50" height="50" relative="1" as="geometry">
            <mxPoint x="440" y="120" as="sourcePoint" />
            <mxPoint x="490" y="70" as="targetPoint" />
          </mxGeometry>
        </mxCell>
        <mxCell id="yfcvIqxZyUnn7YjuINkd-24" value="Book name" style="text;html=1;strokeColor=none;fillColor=none;align=center;verticalAlign=middle;whiteSpace=wrap;rounded=0;strokeWidth=2;fontSize=14;fontColor=#000000;" vertex="1" parent="1">
          <mxGeometry x="470" y="80" width="90" height="30" as="geometry" />
        </mxCell>
        <mxCell id="yfcvIqxZyUnn7YjuINkd-25" value="" style="endArrow=classic;html=1;rounded=0;fontSize=14;fontColor=#000000;entryX=0.443;entryY=-0.056;entryDx=0;entryDy=0;entryPerimeter=0;exitX=0.6;exitY=1.08;exitDx=0;exitDy=0;exitPerimeter=0;" edge="1" parent="1" source="yfcvIqxZyUnn7YjuINkd-2" target="yfcvIqxZyUnn7YjuINkd-21">
          <mxGeometry width="50" height="50" relative="1" as="geometry">
            <mxPoint x="642" y="-60" as="sourcePoint" />
            <mxPoint x="480" y="-20" as="targetPoint" />
          </mxGeometry>
        </mxCell>
        <mxCell id="yfcvIqxZyUnn7YjuINkd-26" value="" style="endArrow=classic;html=1;rounded=0;fontSize=14;fontColor=#000000;" edge="1" parent="1">
          <mxGeometry width="50" height="50" relative="1" as="geometry">
            <mxPoint x="660" y="70" as="sourcePoint" />
            <mxPoint x="770" y="-30" as="targetPoint" />
          </mxGeometry>
        </mxCell>
        <mxCell id="yfcvIqxZyUnn7YjuINkd-27" value="Book name" style="text;html=1;strokeColor=none;fillColor=none;align=center;verticalAlign=middle;whiteSpace=wrap;rounded=0;strokeWidth=2;fontSize=14;fontColor=#000000;" vertex="1" parent="1">
          <mxGeometry x="560" y="-40" width="90" height="30" as="geometry" />
        </mxCell>
        <mxCell id="yfcvIqxZyUnn7YjuINkd-29" value="01" style="html=1;dashed=0;whitespace=wrap;shape=mxgraph.dfd.dataStoreID;align=left;spacingLeft=3;points=[[0,0],[0.5,0],[1,0],[0,0.5],[1,0.5],[0,1],[0.5,1],[1,1]];strokeWidth=2;fontSize=14;fillColor=#f8cecc;strokeColor=#b85450;" vertex="1" parent="1">
          <mxGeometry x="760" y="-60" width="150" height="30" as="geometry" />
        </mxCell>
        <mxCell id="yfcvIqxZyUnn7YjuINkd-30" value="Book List" style="text;html=1;strokeColor=none;fillColor=none;align=center;verticalAlign=middle;whiteSpace=wrap;rounded=0;strokeWidth=2;fontSize=14;fontColor=#000000;" vertex="1" parent="1">
          <mxGeometry x="820" y="-60" width="60" height="30" as="geometry" />
        </mxCell>
        <mxCell id="yfcvIqxZyUnn7YjuINkd-31" value="display" style="text;html=1;strokeColor=none;fillColor=none;align=center;verticalAlign=middle;whiteSpace=wrap;rounded=0;strokeWidth=2;fontSize=14;fontColor=#000000;" vertex="1" parent="1">
          <mxGeometry x="670" y="-10" width="60" height="30" as="geometry" />
        </mxCell>
        <mxCell id="yfcvIqxZyUnn7YjuINkd-32" value="book name and student id" style="text;html=1;strokeColor=none;fillColor=none;align=center;verticalAlign=middle;whiteSpace=wrap;rounded=0;strokeWidth=2;fontSize=14;fontColor=#000000;rotation=30;" vertex="1" parent="1">
          <mxGeometry x="130" y="150" width="90" height="30" as="geometry" />
        </mxCell>
      </root>
    </mxGraphModel>
  </diagram>
</mxfile>
